<?xml version="1.0" standalone="no"?>
<!DOCTYPE svg PUBLIC "-//W3C//DTD SVG 20010904//EN"
 "http://www.w3.org/TR/2001/REC-SVG-20010904/DTD/svg10.dtd">
<svg version="1.0" xmlns="http://www.w3.org/2000/svg"
 width="280.000000pt" height="280.000000pt" viewBox="0 0 280.000000 280.000000"
 preserveAspectRatio="xMidYMid meet">

<g transform="translate(0.000000,280.000000) scale(0.100000,-0.100000)"
fill="#000000" stroke="none">
<path d="M1160 2780 c-248 -45 -505 -168 -679 -324 -35 -32 -74 -61 -87 -66
-13 -5 -24 -17 -24 -25 0 -9 -23 -44 -52 -78 -142 -170 -245 -389 -293 -622
-25 -121 -30 -338 -11 -465 40 -264 148 -502 321 -710 145 -174 375 -332 601
-413 153 -55 263 -72 464 -72 157 0 201 3 289 23 553 124 961 534 1083 1090
30 133 32 425 4 551 -54 251 -169 480 -329 659 -71 78 -77 96 -77 208 0 40 -4
75 -9 79 -6 3 -54 -2 -108 -11 l-98 -17 -125 61 c-227 110 -354 141 -600 148
-133 3 -185 0 -270 -16z m77 -90 c3 -19 16 -36 32 -44 24 -13 23 -14 -23 -9
-36 5 -52 2 -60 -9 -6 -8 -19 -17 -29 -21 -9 -4 -22 -17 -27 -29 -6 -16 -9
-18 -9 -7 -1 9 5 22 13 28 7 6 16 33 20 60 7 57 11 61 48 61 24 0 30 -5 35
-30z m380 23 c-3 -5 14 -8 36 -9 86 -2 357 -99 343 -123 -10 -15 -109 -21
-149 -9 -31 9 -40 9 -47 -2 -5 -7 -19 -15 -32 -17 -13 -1 -33 -5 -45 -8 -17
-4 -20 -1 -16 15 3 12 14 20 27 21 17 0 15 3 -9 11 -16 6 -33 16 -37 22 -5 7
-8 5 -8 -6 0 -12 -11 -19 -35 -24 -19 -3 -35 -11 -35 -16 0 -6 10 -8 23 -4 68
19 66 19 60 -4 -5 -20 -10 -22 -52 -16 -32 4 -41 3 -31 -4 8 -5 12 -10 8 -10
-9 0 -98 60 -98 66 0 2 6 3 13 2 6 -2 11 4 9 12 -3 12 -1 13 9 3 19 -19 27
-16 27 13 0 16 -3 21 -8 14 -6 -9 -11 -6 -20 10 -9 17 -9 21 0 15 9 -5 10 -2
6 13 -4 11 -2 23 4 27 5 3 10 1 10 -5 0 -7 9 -5 22 4 25 18 32 20 25 9z m-587
-52 c0 -11 -4 -23 -10 -26 -5 -3 -10 -16 -10 -27 0 -12 -2 -19 -5 -16 -9 8 6
88 16 88 5 0 9 -9 9 -19z m-49 -41 c-8 -53 4 -100 27 -101 12 0 11 -3 -6 -11
-19 -9 -26 -8 -43 10 -15 16 -27 21 -47 16 -53 -11 -56 -14 -43 -27 9 -9 14
-9 20 2 8 12 15 12 45 -3 33 -15 48 -36 28 -36 -57 0 -232 58 -232 77 0 3 3 3
7 0 3 -4 13 2 21 14 7 11 39 32 70 46 58 25 156 63 158 60 1 -1 -2 -22 -5 -47z
m126 28 c-3 -8 -6 -5 -6 6 -1 11 2 17 5 13 3 -3 4 -12 1 -19z m-6 -111 c-8 -8
-11 -7 -11 2 0 9 -4 10 -13 5 -7 -5 -6 -2 3 6 8 8 15 21 16 28 4 46 8 51 11
13 3 -24 -1 -49 -6 -54z m274 83 c3 -5 1 -10 -4 -10 -6 0 -11 5 -11 10 0 6 2
10 4 10 3 0 8 -4 11 -10z m-135 -10 c0 -5 -7 -10 -16 -10 -8 0 -12 5 -9 10 3
6 10 10 16 10 5 0 9 -4 9 -10z m-73 -25 c0 -8 -4 -12 -9 -9 -5 3 -6 10 -3 15
9 13 12 11 12 -6z m210 8 c-10 -10 23 -43 43 -43 10 0 23 -6 29 -13 8 -11 2
-16 -34 -24 -45 -10 -60 -2 -28 16 15 8 12 11 -17 18 -41 11 -52 39 -18 46 13
2 25 5 27 6 2 0 1 -2 -2 -6z m63 -13 c0 -5 -7 -7 -15 -4 -8 4 -15 1 -15 -7 0
-7 -3 -10 -6 -6 -9 9 5 27 22 27 8 0 14 -4 14 -10z m-175 -20 c-3 -5 -10 -10
-16 -10 -5 0 -9 5 -9 10 0 6 7 10 16 10 8 0 12 -4 9 -10z m-92 -6 c9 -10 -52
-64 -73 -64 -10 0 -23 7 -30 16 -8 8 -9 14 -4 13 14 -4 56 12 72 27 15 15 25
17 35 8z m310 -7 c4 3 7 1 7 -5 0 -21 -16 -21 -30 1 -12 19 -11 21 2 10 8 -7
18 -10 21 -6z m-456 -13 c-3 -3 -12 -4 -19 -1 -8 3 -5 6 6 6 11 1 17 -2 13 -5z
m190 -16 c-3 -8 -6 -5 -6 6 -1 11 2 17 5 13 3 -3 4 -12 1 -19z m120 2 c-1 -20
-17 -29 -17 -9 0 5 -6 7 -12 3 -9 -5 -9 -2 1 9 18 23 30 21 28 -3z m209 13
c-11 -11 -48 -14 -41 -3 3 5 16 10 27 10 12 0 18 -3 14 -7z m632 -40 c2 -21 8
-42 14 -48 8 -7 9 0 4 23 -4 23 -2 31 6 26 7 -5 9 -1 6 12 -4 16 1 19 33 20
35 2 37 0 43 -35 3 -20 6 -64 6 -98 0 -61 -1 -63 -25 -63 -21 0 -25 5 -25 31
0 19 -4 28 -11 23 -6 -3 -9 -21 -7 -38 3 -29 1 -32 -19 -28 -12 2 -31 1 -40
-3 -28 -11 -81 -11 -78 0 2 6 6 52 10 103 5 75 3 92 -7 86 -7 -4 -9 -3 -5 2 4
4 23 7 42 6 18 -2 36 1 40 7 10 16 11 14 13 -26z m-905 20 c-7 -2 -19 -2 -25
0 -7 3 -2 5 12 5 14 0 19 -2 13 -5z m-586 -25 c-3 -12 72 -38 79 -27 3 5 -2
12 -10 15 -26 10 -18 24 14 24 18 0 33 -6 36 -15 4 -9 18 -14 40 -13 19 1 40
-4 46 -10 7 -7 10 -12 8 -13 -10 -2 -47 -7 -129 -20 -65 -10 -86 -10 -89 -1
-2 7 -9 10 -15 6 -7 -3 -3 2 7 10 16 13 17 19 7 29 -10 10 -15 8 -26 -7 -8
-10 -12 -22 -10 -26 2 -4 -6 -12 -18 -18 -31 -15 -99 -23 -95 -12 7 22 121 97
139 93 10 -3 17 -9 16 -15z m363 18 c0 -3 -4 -8 -10 -11 -5 -3 -10 -1 -10 4 0
6 5 11 10 11 6 0 10 -2 10 -4z m101 -29 c-10 -9 -11 -8 -5 6 3 10 9 15 12 12
3 -3 0 -11 -7 -18z m805 13 c23 0 24 -3 24 -70 0 -55 3 -70 15 -70 11 0 15 17
17 73 l3 72 30 0 30 0 -3 -70 c-1 -38 -5 -78 -8 -89 -5 -14 -3 -16 7 -10 12 6
12 5 1 -8 -8 -10 -20 -14 -29 -11 -9 4 -14 2 -11 -3 4 -5 -15 -9 -42 -9 -27 0
-47 2 -45 4 2 2 -2 10 -10 18 -11 10 -15 38 -15 93 0 43 -3 80 -7 83 -5 2 -2
2 5 0 8 -1 25 -3 38 -3z m-56 -104 l0 -93 -32 -10 -33 -10 2 104 c1 69 -2 101
-9 97 -5 -3 -8 -16 -6 -29 3 -12 0 -22 -6 -22 -6 0 -24 -1 -40 -1 -37 -2 -24
-19 19 -25 29 -4 30 -6 30 -53 1 -56 -9 -76 -32 -67 -9 4 -14 2 -11 -3 4 -5
-19 -9 -50 -9 -57 0 -57 0 -56 30 1 28 3 29 42 26 26 -1 42 2 42 8 0 7 -10 9
-23 6 -44 -11 -72 56 -43 100 12 18 12 25 3 28 -6 2 17 5 53 6 36 1 68 5 72 9
5 5 24 6 43 4 l35 -4 0 -92z m-285 42 c11 24 20 32 40 32 14 0 25 -2 25 -5 0
-2 -12 -30 -26 -62 -17 -39 -24 -71 -22 -98 3 -37 1 -40 -22 -41 -14 -1 -32
-3 -40 -5 -11 -3 -15 5 -17 31 l-1 35 8 -35 7 -35 2 37 c1 44 -8 70 -22 61 -6
-3 -7 -1 -3 6 4 6 -4 32 -18 56 -14 25 -22 43 -18 41 4 -2 23 -1 42 3 33 7 36
5 43 -23 l9 -31 13 33z m-224 -20 c-6 -29 -11 -33 -44 -36 -20 -2 -37 -8 -37
-13 0 -6 15 -9 33 -7 30 3 32 1 29 -25 -2 -15 2 -27 9 -27 7 0 10 13 7 35 -2
19 0 35 4 35 4 0 8 -18 8 -40 l0 -40 -45 7 c-31 4 -45 2 -45 -6 0 -6 17 -11
40 -11 36 0 40 -2 40 -25 0 -14 5 -25 10 -25 6 0 10 40 10 100 0 55 4 100 9
100 5 0 16 3 25 6 14 5 16 -4 16 -64 0 -39 5 -74 10 -77 6 -3 10 -2 10 3 0 5
14 7 30 4 23 -3 30 -9 30 -27 0 -25 -22 -35 -82 -35 -20 0 -39 -3 -41 -7 -3
-5 -40 -8 -84 -8 l-78 0 0 95 0 95 64 7 c35 4 66 10 69 13 9 9 10 6 3 -27z
m-204 -23 c5 -4 2 -5 -6 0 -11 7 -13 4 -6 -11 5 -10 10 -40 13 -65 3 -38 -1
-51 -22 -76 -14 -17 -24 -32 -22 -34 4 -3 -66 -3 -106 0 -5 1 -8 6 -8 12 0 8
6 7 18 -2 16 -13 16 -12 1 6 -18 21 -42 118 -28 109 8 -5 13 13 12 44 -1 7 1
11 4 8 3 -3 15 1 27 10 22 16 109 15 123 -1z m-169 -22 c3 -17 -3 -23 -30 -28
-44 -10 -58 -22 -58 -54 0 -38 16 -50 58 -44 33 6 35 5 30 -20 -3 -15 -2 -28
1 -30 3 -2 1 -3 -4 -2 -6 2 -31 -1 -57 -5 -31 -4 -45 -3 -41 3 4 6 0 8 -10 4
-9 -3 -19 -2 -22 3 -8 13 -40 5 -40 -10 0 -9 -20 -14 -60 -17 -33 -3 -67 -10
-75 -16 -12 -9 -13 -9 -2 3 6 8 12 24 12 37 0 20 5 23 34 23 42 0 56 17 22 26
-60 15 -84 109 -31 121 64 14 117 19 122 10 3 -6 1 -7 -5 -3 -8 5 -12 -1 -12
-17 0 -21 -6 -26 -37 -32 l-38 -8 33 -14 c18 -7 37 -11 43 -8 5 4 9 3 8 -2 -4
-23 2 -85 8 -80 3 4 12 2 19 -4 9 -8 9 -1 -2 21 -12 22 -14 44 -10 73 4 23 8
47 8 54 1 7 6 11 12 10 6 -1 10 5 8 13 -2 8 -1 12 3 9 3 -4 18 -3 33 1 45 14
77 8 80 -17z m-320 -110 c-3 -86 -5 -98 -22 -101 -10 -2 -23 1 -28 6 -11 11
-14 165 -3 182 3 5 17 10 31 10 l25 0 -3 -97z m-76 68 c11 -11 11 -13 -1 -6
-10 6 -11 2 -5 -16 10 -28 12 -129 3 -123 -10 6 -30 -22 -22 -30 4 -4 -1 -4
-11 0 -13 5 -17 4 -13 -3 4 -7 0 -9 -11 -7 -9 3 -35 1 -57 -4 l-40 -9 0 106 0
106 72 0 c49 0 77 -5 85 -14z m245 -3 c-3 -8 -6 -5 -6 6 -1 11 2 17 5 13 3 -3
4 -12 1 -19z m-30 -14 c-3 -3 -12 -4 -19 -1 -8 3 -5 6 6 6 11 1 17 -2 13 -5z
m1599 -63 c115 -142 232 -370 221 -428 -3 -15 1 -23 9 -23 8 0 14 -6 14 -14 0
-8 3 -22 6 -30 6 -14 0 -16 -37 -10 -70 11 -76 17 -83 85 -14 124 -76 281
-157 401 -22 31 -39 62 -39 67 0 24 22 8 66 -48z m-49 -33 c88 -136 131 -244
152 -383 12 -84 4 -195 -15 -202 -8 -3 -14 -16 -14 -28 0 -28 -24 -55 -50 -55
-10 0 -22 -4 -25 -10 -8 -14 -28 -13 -49 3 -17 13 -17 17 -2 76 34 132 13 285
-65 468 -23 54 -45 103 -49 108 -4 6 -11 25 -15 43 -7 34 9 44 33 20 9 -9 12
-8 12 5 0 11 8 17 23 17 17 0 33 -16 64 -62z m-1618 13 c-6 -2 -18 4 -27 13
-15 15 -15 15 10 4 15 -7 23 -15 17 -17z m-423 -139 c-34 -104 -60 -313 -51
-422 9 -121 21 -176 54 -247 29 -60 29 -62 10 -79 -16 -14 -21 -15 -35 -4 -13
12 -17 11 -25 -1 -7 -11 -9 -9 -9 9 0 13 -4 20 -10 17 -6 -4 -10 8 -10 28 0
19 -6 40 -13 46 -22 17 -33 -22 -36 -129 -3 -95 -10 -114 -39 -102 -13 4 -12
7 3 12 14 5 15 9 6 14 -7 5 -18 3 -24 -3 -6 -6 -19 -11 -29 -11 -9 0 -22 -8
-27 -17 -6 -10 -11 -13 -11 -8 0 6 -4 4 -9 -4 -6 -10 -9 -2 -8 22 0 21 5 37 9
37 4 0 8 4 8 10 0 5 -7 7 -15 4 -10 -4 -15 0 -15 16 0 18 4 20 22 14 l23 -6
-23 24 c-25 28 -29 43 -7 34 20 -7 20 18 0 34 -19 16 -19 140 -1 152 8 5 8 10
0 18 -12 12 14 177 41 263 41 126 123 284 199 387 l41 55 3 -43 c2 -27 -6 -72
-22 -120z m844 144 c0 -2 -8 -10 -17 -17 -16 -13 -17 -12 -4 4 13 16 21 21 21
13z m845 -3 c-11 -3 -26 -10 -33 -16 -7 -5 -15 -7 -19 -3 -3 3 -1 6 6 6 7 0 9
5 6 10 -4 6 7 10 27 9 21 -1 26 -3 13 -6z m-165 -18 c-14 -16 -38 -19 -67 -8
-14 6 -8 9 22 14 22 3 44 7 49 8 5 0 3 -6 -4 -14z m-120 -25 c0 -5 -2 -10 -4
-10 -3 0 -8 5 -11 10 -3 6 -1 10 4 10 6 0 11 -4 11 -10z m403 -32 c-2 -4 6
-12 17 -18 11 -6 18 -15 15 -20 -3 -5 0 -12 6 -16 8 -4 9 -3 5 4 -4 7 -4 12 1
12 7 0 83 -263 90 -310 1 -8 7 -35 12 -60 6 -25 14 -77 19 -117 l8 -72 -27
-12 c-36 -14 -47 -6 -45 33 1 18 -3 47 -10 63 -6 17 -14 72 -18 123 -6 107
-35 200 -72 237 -14 14 -22 30 -18 36 4 7 -2 10 -17 8 -13 -2 -30 0 -37 5 -7
4 -19 5 -27 2 -8 -3 -15 -1 -15 4 0 6 9 10 20 10 11 0 20 4 20 9 0 5 6 11 14
14 10 4 14 0 11 -13 -2 -12 1 -17 9 -14 8 3 14 27 15 61 1 31 5 61 8 67 7 11
23 -25 16 -36z m-584 6 c-8 -9 -15 -12 -17 -6 -2 6 -10 8 -19 5 -11 -4 -14 -2
-9 5 4 7 19 12 33 12 22 0 24 -2 12 -16z m61 -3 c0 -20 -17 -37 -27 -28 -7 8
7 47 18 47 5 0 9 -9 9 -19z m233 6 c4 3 13 1 20 -5 10 -9 18 -8 33 3 22 17 60
20 69 5 3 -5 16 -10 28 -11 13 0 16 -3 9 -6 -8 -3 -25 1 -38 8 -19 10 -27 10
-36 1 -9 -9 -9 -12 1 -12 7 0 9 -4 6 -10 -3 -5 -15 -10 -25 -10 -28 0 -100 30
-100 42 0 7 5 6 13 -1 8 -6 17 -8 20 -4z m237 -26 c0 -20 -26 -24 -46 -6 -9 7
-8 12 5 17 28 12 41 9 41 -11z m110 5 c0 -3 -4 -8 -10 -11 -5 -3 -10 -1 -10 4
0 6 5 11 10 11 6 0 10 -2 10 -4z m-395 -15 c-3 -5 -1 -12 5 -16 14 -9 13 -28
-2 -23 -14 5 -21 48 -7 48 5 0 8 -4 4 -9z m55 -7 c0 -2 -9 -4 -21 -4 -11 0
-18 4 -14 10 5 8 35 3 35 -6z m135 7 c3 -6 14 -8 25 -6 12 2 18 0 14 -6 -3 -6
-18 -8 -33 -4 -32 8 -52 25 -29 25 9 0 19 -4 23 -9z m-762 -22 c4 -13 1 -14
-19 -5 -29 13 -31 22 -5 22 11 0 22 -8 24 -17z m524 5 c-3 -3 -12 -4 -19 -1
-8 3 -5 6 6 6 11 1 17 -2 13 -5z m-104 -18 c9 -7 17 -21 17 -31 0 -18 -1 -18
-17 -1 -10 9 -27 23 -38 31 l-20 14 20 0 c11 0 28 -6 38 -13z m217 -1 c-7 -9
-15 -13 -19 -10 -3 3 1 10 9 15 21 14 24 12 10 -5z m53 8 c-7 -2 -19 -2 -25 0
-7 3 -2 5 12 5 14 0 19 -2 13 -5z m137 -3 c-8 -5 -37 -9 -65 -8 l-50 1 55 7
c30 4 60 7 65 8 6 1 3 -3 -5 -8z m-1197 -36 c6 -35 -4 -105 -24 -170 -5 -17
-9 -38 -9 -48 0 -11 -4 -15 -12 -9 -7 4 -5 -6 6 -21 18 -28 18 -29 0 -21 -11
4 -46 10 -79 13 -33 2 -62 6 -64 8 -6 6 17 236 25 257 6 16 25 21 105 25 46 2
46 2 52 -34z m197 26 c0 -5 -5 -10 -11 -10 -5 0 -7 5 -4 10 3 6 8 10 11 10 2
0 4 -4 4 -10z m1232 -70 c58 -111 77 -227 61 -373 -8 -65 -20 -42 -17 31 1 31
-2 62 -7 68 -5 6 -13 31 -19 55 -5 24 -12 57 -16 73 -5 20 -3 27 4 22 6 -3 13
-2 16 3 4 5 -3 11 -15 13 -15 2 -23 11 -26 28 -2 17 0 21 6 11 5 -8 14 -10 21
-6 9 6 8 11 -6 19 -11 6 -23 11 -28 11 -12 0 -37 95 -31 114 8 20 17 8 57 -69z
m-1617 48 c-4 -13 -11 -77 -17 -143 -5 -66 -14 -124 -18 -129 -5 -5 -20 -10
-35 -11 -14 -2 -32 -8 -39 -14 -7 -6 -16 -8 -19 -4 -4 3 -7 0 -7 -7 0 -18 -13
-4 -16 18 -13 83 2 237 27 284 6 11 25 18 57 21 26 2 53 4 61 5 9 1 11 -4 6
-20z m1240 -61 c-3 -43 -20 -21 -22 28 -2 48 -2 49 11 22 7 -16 12 -38 11 -50z
m-150 44 c-3 -11 1 -26 11 -35 10 -11 13 -21 7 -29 -10 -13 -10 -47 2 -120 5
-30 3 -57 -3 -70 -6 -12 -13 -31 -15 -42 -3 -17 -5 -16 -16 8 -16 41 -17 272
-1 292 17 20 23 19 15 -4z m-1276 -78 c0 -49 4 -118 7 -155 5 -50 3 -68 -6
-68 -8 0 -10 -12 -5 -40 4 -24 3 -40 -3 -40 -11 0 -24 45 -37 125 -2 11 -8 43
-13 70 -9 44 -16 148 -13 183 1 7 15 12 35 12 l34 0 1 -87z m-94 -91 c3 -13 9
-20 14 -18 5 3 11 -13 14 -37 25 -184 38 -258 51 -296 9 -24 16 -50 16 -58 0
-17 24 -43 39 -43 6 0 11 -5 11 -11 0 -11 -101 -59 -111 -53 -3 2 -11 29 -18
60 -8 35 -16 52 -21 44 -19 -31 -49 145 -49 290 -1 80 11 188 26 255 6 25 8
18 15 -40 4 -38 10 -80 13 -93z m1074 112 c3 -2 0 -9 -6 -15 -6 -6 -19 -6 -38
1 -22 8 -33 7 -53 -6 -17 -11 -22 -12 -17 -3 21 37 29 41 69 34 22 -3 42 -8
45 -11z m616 -33 c6 -3 15 -6 20 -6 6 0 10 -10 9 -22 0 -13 4 -19 13 -16 10 4
12 -3 8 -28 l-5 -34 13 29 14 29 7 -26 c3 -14 2 -36 -3 -49 -8 -20 -10 -21
-16 -5 -9 21 -25 23 -25 2 0 -14 -14 -18 -65 -18 -19 0 -34 4 -82 23 -32 13
-57 -18 -44 -54 10 -26 24 -31 69 -27 12 1 22 -3 22 -9 0 -5 -6 -10 -14 -10
-7 0 -25 -11 -40 -25 -36 -33 -51 -32 -70 7 -22 44 -20 82 9 127 13 22 27 51
31 65 11 44 51 68 99 60 22 -3 45 -9 50 -13z m-356 -215 c11 -27 8 -46 -5 -33
-10 10 -24 81 -23 122 1 39 2 39 9 -10 4 -27 13 -63 19 -79z m-689 77 c-12
-54 -25 -94 -45 -134 -16 -30 -16 -32 -2 -20 10 8 17 9 17 3 0 -6 -4 -13 -9
-16 -5 -3 -12 -18 -16 -33 -3 -15 -19 -41 -34 -58 l-27 -31 -12 35 c-10 34 -8
40 32 101 36 55 60 107 82 178 2 6 7 12 12 12 5 0 6 -16 2 -37z m1017 -53 c1
-20 -2 -30 -12 -30 -20 0 -30 40 -14 51 21 13 24 11 26 -21z m-1304 -67 c1
-46 6 -62 24 -76 13 -10 23 -23 23 -28 0 -13 -47 -11 -86 3 -26 9 -39 9 -61
-2 -15 -7 -32 -13 -36 -11 -5 1 -11 -8 -14 -19 -3 -11 -9 -20 -14 -20 -10 0
-10 -2 -15 64 -7 77 31 119 111 120 37 1 40 3 43 31 6 47 22 7 25 -62z m117
66 c0 -6 -4 -7 -10 -4 -5 3 -10 11 -10 16 0 6 5 7 10 4 6 -3 10 -11 10 -16z
m1280 -54 c0 -8 -2 -15 -4 -15 -2 0 -11 -3 -20 -6 -10 -4 -16 -1 -16 9 0 14
13 24 33 26 4 1 7 -6 7 -14z m-100 -15 c0 -5 -2 -10 -4 -10 -3 0 -8 5 -11 10
-3 6 -1 10 4 10 6 0 11 -4 11 -10z m-1514 -61 c-9 -19 -15 -26 -16 -17 0 23
22 75 26 62 3 -6 -2 -26 -10 -45z m-39 -11 c-3 -8 -6 -5 -6 6 -1 11 2 17 5 13
3 -3 4 -12 1 -19z m2050 -10 c-3 -8 -6 -5 -6 6 -1 11 2 17 5 13 3 -3 4 -12 1
-19z m-2019 -54 c-3 -14 -7 -10 -16 16 -12 32 -11 34 4 19 9 -9 14 -25 12 -35z
m342 32 c0 -2 -7 -9 -15 -16 -13 -11 -14 -10 -9 4 5 14 24 23 24 12z m-139
-33 c5 -14 7 -33 5 -40 -3 -8 -1 -11 4 -8 6 3 10 15 10 25 0 31 40 36 61 9 10
-13 19 -31 19 -39 1 -10 4 -9 10 5 8 18 9 18 9 2 1 -10 8 -20 16 -24 13 -5 13
-8 -5 -20 -13 -10 -20 -25 -20 -49 0 -19 -4 -34 -10 -34 -5 0 -10 16 -10 35 0
19 -4 35 -10 35 -5 0 -10 -12 -10 -27 0 -37 -11 -22 -12 17 -1 30 -2 31 -35
25 -27 -5 -33 -3 -33 12 0 12 -3 14 -11 6 -6 -6 -19 -8 -30 -6 -24 7 -51 60
-41 80 6 10 13 4 27 -26 19 -43 35 -53 35 -23 0 10 5 23 12 30 9 9 7 13 -5 18
-21 8 -22 24 -2 24 9 0 20 -12 26 -27z m1819 -33 c0 -28 -2 -30 -20 -20 -30
16 -25 50 7 50 8 0 13 -12 13 -30z m-536 14 c24 -9 19 -22 -6 -19 -30 3 -30 3
-23 15 7 12 8 12 29 4z m324 -10 c26 -7 29 -19 6 -28 -19 -7 -57 11 -49 25 7
11 12 11 43 3z m-1808 -14 c0 -19 2 -25 12 -37 8 -9 7 -13 -3 -13 -10 -1 -8
-5 5 -15 11 -8 17 -18 13 -21 -3 -3 -17 6 -31 21 -29 31 -35 75 -11 75 8 0 15
-4 15 -10z m1305 -98 c7 -48 32 -99 68 -139 11 -13 15 -23 9 -23 -6 0 -14 5
-17 10 -14 22 -44 7 -113 -56 -46 -42 -90 -72 -122 -84 -61 -22 -63 -14 -12
60 46 66 55 87 40 96 -7 5 -8 2 -3 -6 5 -8 4 -11 -3 -6 -6 4 -9 12 -6 20 3 7
-1 26 -7 42 -7 16 -11 33 -10 38 1 5 -9 1 -24 -8 -14 -9 -25 -13 -25 -8 0 15
109 107 164 139 28 15 52 -13 61 -75z m819 43 c8 -8 21 -12 29 -9 11 4 21 -6
32 -30 16 -33 16 -43 0 -166 -10 -71 -21 -130 -26 -130 -5 0 -13 10 -20 21 -8
17 -13 19 -19 8 -6 -9 -11 -2 -17 21 -7 25 -17 36 -41 44 -57 20 -59 32 -14
118 6 13 -49 30 -62 19 -9 -8 -78 -15 -110 -12 -5 1 4 13 20 29 25 23 37 27
81 26 39 -1 50 2 46 12 -3 7 -13 16 -24 19 -21 7 -25 20 -9 30 13 8 50 -13 50
-28 0 -7 13 -20 29 -30 25 -15 30 -15 47 -1 15 12 16 15 2 10 -17 -5 -40 16
-51 47 -5 13 -1 17 18 17 13 0 30 -7 39 -15z m-1774 -52 c0 -27 -5 -55 -10
-63 -7 -11 -10 3 -10 48 0 35 4 62 10 62 6 0 10 -21 10 -47z m-148 8 c18 -15
44 -34 57 -40 18 -10 20 -16 11 -24 -8 -9 -18 -4 -41 23 -29 33 -30 33 -25 10
4 -21 1 -26 -17 -27 -14 -2 -17 1 -9 6 17 10 5 39 -18 46 -11 4 -17 12 -13 21
8 20 18 18 55 -15z m1260 -38 c15 -25 16 -37 6 -84 -6 -31 -8 -67 -3 -84 l8
-30 14 34 c11 25 19 32 33 28 20 -5 37 20 54 78 18 58 116 122 140 91 6 -8 25
-23 41 -33 42 -25 105 -76 105 -85 0 -14 -38 -9 -92 12 -47 18 -59 19 -105 8
-29 -6 -53 -15 -53 -20 0 -20 29 -37 73 -43 36 -6 54 -15 77 -41 16 -19 30
-39 30 -45 0 -6 4 -8 9 -5 4 3 6 17 3 31 -3 17 0 25 9 25 27 0 41 -18 46 -59
6 -43 21 -54 30 -21 5 20 15 25 25 15 6 -7 -11 -85 -22 -100 -5 -5 -11 -50
-15 -100 -9 -124 -10 -125 -45 -115 -22 6 -32 4 -46 -11 -12 -14 -14 -22 -6
-31 16 -20 43 -194 40 -259 -2 -52 -4 -56 -21 -47 -14 7 -16 13 -8 21 12 12
14 68 4 106 -6 22 -8 20 -29 -27 -13 -29 -27 -52 -31 -52 -5 0 -10 16 -11 36
-5 75 -125 384 -149 384 -6 0 -15 9 -18 20 -11 33 -7 138 6 177 9 29 9 37 -2
44 -11 7 -10 9 5 9 11 0 17 3 13 6 -11 11 -44 -6 -81 -42 l-36 -35 -26 20
c-15 12 -38 21 -53 21 l-26 0 30 -20 c45 -30 104 -100 98 -116 -3 -9 0 -12 8
-9 11 4 14 -21 15 -132 1 -149 19 -302 38 -328 11 -15 61 -21 106 -13 31 6 20
-17 -15 -29 -25 -8 -44 -9 -62 -2 -20 7 -24 7 -20 -4 3 -8 2 -18 -1 -23 -11
-15 -66 -51 -89 -58 -12 -4 -24 -13 -27 -21 -4 -12 -15 -9 -58 14 -29 16 -70
32 -91 35 -21 4 -46 10 -55 13 -9 3 -1 -9 18 -26 24 -22 28 -30 15 -26 -11 4
-56 16 -100 27 -44 11 -88 24 -97 29 -25 14 -45 -26 -21 -40 30 -17 -37 -13
-71 4 -35 19 -34 19 -39 -2 -3 -10 -5 -5 -6 12 -3 97 117 206 198 180 11 -3
33 1 50 9 52 27 96 19 151 -28 18 -15 21 -16 10 -3 -7 10 -15 35 -17 55 -8
100 -16 127 -62 220 -10 22 -17 28 -19 18 -2 -9 -10 -16 -18 -16 -11 0 -14 23
-14 123 l0 122 40 33 c42 35 60 40 60 17 0 -24 18 -18 41 15 22 28 40 33 67
17 8 -6 12 -2 12 12 0 11 -4 22 -9 25 -15 10 -33 114 -24 148 6 25 44 8 65
-29z m-897 17 c-4 -6 6 -10 23 -10 34 0 69 -34 72 -70 1 -14 2 -49 1 -79 -1
-42 -4 -51 -14 -43 -6 6 -28 12 -47 14 -22 2 -35 8 -35 17 0 8 -5 16 -10 18
-6 2 -10 -14 -10 -37 0 -34 3 -41 27 -49 22 -8 28 -7 28 5 0 7 5 14 10 14 6 0
10 -5 10 -11 0 -8 5 -7 15 1 22 18 26 9 31 -64 l5 -66 -37 22 c-19 11 -38 27
-41 35 -3 7 -11 13 -18 13 -26 0 -55 56 -50 95 4 31 1 38 -15 42 -31 8 -23 30
13 37 24 5 29 9 17 16 -9 5 -19 5 -27 -2 -21 -17 -27 -1 -9 26 9 14 16 27 16
30 0 7 -23 1 -48 -12 -19 -11 -21 -18 -16 -55 l5 -42 -25 40 c-30 47 -32 63
-8 72 9 3 25 15 36 26 11 11 21 15 25 9 4 -7 15 -5 31 3 29 17 54 19 45 5z
m-470 -65 l34 -42 -35 -31 c-19 -17 -52 -34 -72 -38 -52 -9 -56 -13 -34 -38
18 -20 72 -113 72 -124 0 -3 -11 5 -25 18 -14 13 -23 30 -21 37 3 7 2 12 -2
10 -4 -1 -24 11 -46 28 -46 35 -98 39 -121 10 -11 -16 -14 -17 -15 -4 0 8 5
20 12 27 7 7 8 12 3 12 -5 0 12 22 39 49 27 27 46 55 44 63 -5 13 90 65 119
65 7 0 29 -19 48 -42z m957 -13 c-14 -19 -18 -32 -11 -44 6 -11 6 -19 -1 -23
-9 -5 -12 1 -9 21 0 4 -5 10 -12 14 -9 6 -4 15 17 34 37 33 40 32 16 -2z
m-1158 -4 c8 -13 7 -21 -2 -30 -10 -10 -15 -10 -22 2 -6 9 -13 11 -17 5 -5 -5
-15 -11 -23 -13 -11 -2 -10 1 3 12 12 9 14 16 8 21 -6 3 -11 11 -11 16 0 17
52 6 64 -13z m336 2 c0 -5 -16 -10 -35 -10 -19 0 -35 5 -35 10 0 6 16 10 35
10 19 0 35 -4 35 -10z m-498 -62 c-6 -6 -8 -1 -7 14 5 46 8 52 12 24 3 -16 0
-33 -5 -38z m1067 22 c0 -10 -3 -8 -9 5 -12 27 -12 43 0 25 5 -8 9 -22 9 -30z
m-860 -152 c29 -52 10 -56 -30 -5 -18 23 -26 36 -16 28 15 -12 17 -11 17 4 0
22 2 20 29 -27z m307 -15 c3 -16 7 -32 8 -38 2 -5 -8 -30 -22 -55 -46 -85 -62
-155 -62 -266 l0 -103 -40 -46 c-22 -25 -40 -53 -40 -60 0 -8 -9 -19 -20 -25
-25 -14 -25 -4 -1 58 11 27 16 54 12 60 -7 12 11 165 27 222 30 105 60 173 72
165 6 -4 10 10 10 32 0 57 10 83 31 83 12 0 21 -10 25 -27z m-436 -13 c0 -27
2 -29 19 -18 16 10 25 9 46 -2 15 -8 22 -16 16 -18 -7 -2 -5 -9 4 -18 8 -9 19
-13 23 -10 5 3 9 -12 10 -33 2 -34 -2 -40 -24 -45 -14 -4 -29 -4 -33 -2 -4 3
-14 -6 -21 -19 -19 -35 -27 -31 -22 9 3 25 -2 40 -18 56 -13 13 -20 31 -19 48
2 15 0 33 -5 40 -9 15 -1 42 14 42 5 0 10 -14 10 -30z m40 21 c0 -6 -4 -13
-10 -16 -5 -3 -10 1 -10 9 0 9 5 16 10 16 6 0 10 -4 10 -9z m2150 -6 c0 -8
-13 -21 -30 -30 -16 -9 -30 -11 -30 -6 0 5 9 12 19 16 11 3 22 12 25 20 7 19
16 19 16 0z m-1395 -55 c3 -5 1 -10 -4 -10 -6 0 -11 5 -11 10 0 6 2 10 4 10 3
0 8 -4 11 -10z m-612 -40 c3 -13 0 -20 -9 -20 -8 0 -14 10 -14 26 0 28 15 25
23 -6z m672 -30 c3 -5 17 -10 31 -10 13 0 24 -4 24 -10 0 -5 -4 -10 -10 -10
-5 0 -10 -7 -10 -15 0 -23 17 -18 25 8 7 21 8 20 12 -8 3 -16 8 -34 13 -40 10
-13 -2 -90 -15 -90 -6 -1 -20 -6 -33 -13 -20 -12 -23 -10 -32 13 -6 15 -10 43
-10 63 -1 20 -7 55 -15 77 -8 22 -15 41 -15 43 0 7 30 0 35 -8z m-891 -34 c-1
-10 0 -15 3 -12 3 3 12 -2 20 -10 13 -13 12 -17 -11 -39 -24 -22 -30 -23 -27
-2 0 4 -8 7 -19 7 -14 0 -18 -5 -13 -17 4 -10 9 -20 13 -23 13 -11 70 -104 69
-114 -1 -17 -18 -52 -18 -39 -1 6 -22 34 -49 62 -30 31 -48 60 -50 77 -1 16
-7 33 -13 39 -10 9 -7 -24 7 -90 3 -11 -9 5 -25 35 -35 63 -36 70 -17 70 22 0
76 33 76 47 0 14 31 34 45 29 6 -2 9 -11 9 -20z m1831 -498 c17 -23 36 -49 44
-59 11 -16 11 -20 -5 -26 -26 -10 -93 69 -86 103 6 32 12 30 47 -18z m-1571
-80 c-9 -14 -23 2 -17 18 4 12 8 13 14 3 4 -7 5 -17 3 -21z m86 -28 c12 -22
13 -50 2 -50 -4 0 -23 13 -42 29 -30 25 -33 31 -21 45 15 18 44 7 61 -24z
m1334 -16 c3 -8 2 -12 -4 -9 -6 3 -10 10 -10 16 0 14 7 11 14 -7z m-964 -120
c-6 -14 -7 -31 -3 -37 4 -7 8 -18 10 -26 1 -8 8 -18 15 -23 9 -7 8 -8 -5 -4
-10 3 -23 6 -28 6 -6 0 -8 9 -4 20 5 16 3 19 -10 14 -14 -6 -14 -1 4 35 24 46
36 55 21 15z"/>
<path d="M1632 2659 c2 -7 10 -15 17 -17 8 -3 12 1 9 9 -2 7 -10 15 -17 17 -8
3 -12 -1 -9 -9z"/>
<path d="M850 2560 c0 -5 5 -10 11 -10 5 0 7 5 4 10 -3 6 -8 10 -11 10 -2 0
-4 -4 -4 -10z"/>
<path d="M775 2530 c3 -5 18 -10 33 -10 21 0 24 2 12 10 -20 13 -53 13 -45 0z"/>
<path d="M1340 2576 c0 -2 7 -7 16 -10 8 -3 12 -2 9 4 -6 10 -25 14 -25 6z"/>
<path d="M2149 2348 c-3 -22 -1 -34 4 -29 5 5 7 21 5 37 -3 27 -4 26 -9 -8z"/>
<path d="M1702 2354 c10 -10 20 -16 22 -13 3 3 -5 11 -17 18 -21 13 -21 12 -5
-5z"/>
<path d="M1092 2338 c-26 -26 -8 -96 23 -85 12 5 15 17 13 49 -3 44 -16 56
-36 36z"/>
<path d="M527 2243 c-5 -45 6 -62 28 -43 16 13 19 37 9 64 -11 29 -32 17 -37
-21z"/>
<path d="M2420 1559 c0 -6 -9 -9 -20 -6 -11 3 -18 1 -14 -4 8 -14 30 -11 44 6
9 10 9 15 1 15 -6 0 -11 -5 -11 -11z"/>
<path d="M190 1662 c0 -74 -2 -80 -22 -87 -22 -7 -22 -7 -3 -12 31 -8 44 -22
40 -44 -2 -11 -1 -28 3 -37 18 -47 28 120 11 197 -17 79 -29 71 -29 -17z"/>
<path d="M86 1565 c-3 -8 -1 -15 4 -15 13 0 22 18 11 24 -5 3 -11 -1 -15 -9z"/>
<path d="M371 1590 c0 -19 7 -53 14 -75 l14 -40 -6 55 c-7 71 -22 111 -22 60z"/>
<path d="M1772 1408 c-7 -7 -12 -18 -12 -26 0 -9 -7 -11 -20 -7 -32 10 -46 -6
-19 -21 13 -7 19 -13 13 -14 -12 0 -15 -30 -3 -30 9 0 62 101 56 106 -2 2 -9
-2 -15 -8z"/>
<path d="M2261 700 c-1 -34 3 -60 9 -60 6 0 10 26 10 60 0 33 -4 60 -9 60 -4
0 -9 -27 -10 -60z"/>
<path d="M2296 741 c-4 -7 -5 -15 -2 -18 9 -9 19 4 14 18 -4 11 -6 11 -12 0z"/>
<path d="M1115 1330 c-4 -6 8 -10 31 -10 40 0 39 12 -1 17 -13 2 -26 -1 -30
-7z"/>
<path d="M1150 1251 c0 -17 12 -41 21 -41 5 0 9 11 9 25 0 16 -6 25 -15 25 -8
0 -15 -4 -15 -9z"/>
<path d="M1171 1084 c0 -11 3 -14 6 -6 3 7 2 16 -1 19 -3 4 -6 -2 -5 -13z"/>
<path d="M390 1033 c0 -15 18 -35 23 -27 3 5 -1 15 -9 22 -8 7 -14 9 -14 5z"/>
<path d="M1210 879 c0 -5 9 -9 20 -9 11 0 20 2 20 4 0 2 -9 6 -20 9 -11 3 -20
1 -20 -4z"/>
<path d="M1225 839 c-4 -6 -5 -12 -2 -15 2 -3 7 2 10 11 7 17 1 20 -8 4z"/>
<path d="M290 949 c0 -5 5 -7 10 -4 6 3 10 8 10 11 0 2 -4 4 -10 4 -5 0 -10
-5 -10 -11z"/>
</g>
</svg>
