<svg width="50" height="50" viewBox="0 0 50 50" fill="none" xmlns="http://www.w3.org/2000/svg">
<rect x="0.5" y="0.5" width="49" height="49" rx="24.5" stroke="#09A494"/>
<path d="M24.5 13C17.6075 13 12 18.6075 12 25.5C12 32.3925 17.6075 38 24.5 38C31.3925 38 37 32.3925 37 25.5C37 18.6075 31.3925 13 24.5 13ZM24.5 14.875C30.3791 14.875 35.125 19.6209 35.125 25.5C35.125 30.2908 31.9731 34.3266 27.625 35.6575V32.4604C27.625 31.2666 26.9371 30.2429 25.9429 29.7334C26.9096 29.5485 27.8072 29.1817 28.5612 28.6637C29.3153 28.1456 29.904 27.4912 30.2785 26.7546C30.6531 26.0181 30.8026 25.2207 30.7148 24.4286C30.6269 23.6366 30.3042 22.8727 29.7734 22.2004C30.0507 21.3471 30.3603 19.8504 29.6245 18.6726C28.2058 18.6726 27.2904 19.6451 26.8535 20.2498C26.1066 20.0044 25.3074 19.8771 24.5 19.875C23.6921 19.8757 22.892 20.0017 22.144 20.2461C21.7061 19.6411 20.7914 18.6726 19.3755 18.6726C18.5311 20.0243 19.0531 21.4778 19.3328 22.071C18.7661 22.7404 18.4108 23.5098 18.2973 24.3131C18.1837 25.1164 18.3154 25.9298 18.681 26.6835C19.0465 27.4372 19.6351 28.1087 20.3962 28.6406C21.1573 29.1724 22.0683 29.5486 23.051 29.7371C22.2347 30.1578 21.6233 30.9213 21.436 31.8477H20.6145C19.8039 31.8477 19.4889 31.5183 19.0508 30.9626C18.6183 30.407 18.1532 30.0337 17.5945 29.8787C17.2932 29.8468 17.0903 30.0759 17.3528 30.2791C18.2397 30.8828 18.3009 31.8709 18.6565 32.5178C18.9802 33.1003 19.6436 33.625 20.3936 33.625H21.375V35.6575C17.0269 34.3266 13.875 30.2908 13.875 25.5C13.875 19.6209 18.6209 14.875 24.5 14.875Z" fill="black"/>
</svg>
