<svg width="50" height="50" viewBox="0 0 50 50" fill="none" xmlns="http://www.w3.org/2000/svg">
<rect x="0.5" y="0.5" width="49" height="49" rx="24.5" stroke="#09A494"/>
<path d="M34.1543 13.9844C33.8292 13.9988 33.5264 14.0935 33.2598 14.2012C33.01 14.3017 32.0558 14.711 30.5527 15.3555C29.0484 16.0006 27.0565 16.8558 24.9316 17.7696C20.682 19.5971 15.9042 21.6542 13.457 22.7071C13.365 22.7467 13.0439 22.8492 12.7031 23.1153C12.3623 23.3813 12 23.9326 12 24.5469C12 25.0423 12.2361 25.5344 12.5332 25.8282C12.8303 26.122 13.1447 26.2671 13.4141 26.377C14.3912 26.7757 17.4218 28.0159 17.9941 28.2501C18.1955 28.867 19.2925 32.2226 19.5469 33.045C19.7146 33.5877 19.8742 33.9276 20.082 34.1973C20.1859 34.3322 20.3067 34.4504 20.4531 34.543C20.5116 34.58 20.5758 34.6086 20.6406 34.6348L20.6445 34.6368C20.6595 34.6428 20.6723 34.653 20.6875 34.6583C20.7161 34.6683 20.7352 34.6695 20.7734 34.6778C20.9258 34.727 21.0795 34.7579 21.2168 34.7579C21.802 34.7579 22.1602 34.4356 22.1602 34.4356L22.1816 34.42L25.1914 31.8165L28.8418 35.2696C28.8932 35.3423 29.3725 36.0001 30.4297 36.0001C31.0574 36.0001 31.5553 35.6851 31.875 35.3497C32.1947 35.0143 32.3938 34.6619 32.4785 34.2188V34.2169C32.5577 33.7982 35.9219 16.5274 35.9219 16.5274L35.916 16.5508C36.0145 16.1013 36.0403 15.6827 35.9316 15.2696C35.823 14.8565 35.5366 14.461 35.1816 14.2481C34.8267 14.0353 34.4794 13.9701 34.1543 13.9844ZM33.9668 16.0743C33.962 16.1035 33.9704 16.0888 33.9629 16.1231L33.9609 16.1348L33.959 16.1465C33.959 16.1465 30.6365 33.1964 30.5137 33.8458C30.5227 33.7967 30.4816 33.8942 30.4395 33.9532C30.3799 33.9121 30.2578 33.8594 30.2578 33.8594L30.2383 33.838L25.252 29.1212L21.7266 32.168L22.7754 27.9688C22.7754 27.9688 29.3316 21.1822 29.7266 20.7872C30.0446 20.4712 30.1113 20.361 30.1113 20.252C30.1113 20.106 30.0352 20.0001 29.8652 20.0001C29.7122 20.0001 29.5065 20.1488 29.3965 20.2188C27.9634 21.1324 21.6718 24.7992 18.8516 26.4395C18.4034 26.2561 15.2897 24.9815 14.2344 24.5508C14.2424 24.5473 14.2397 24.5486 14.248 24.545C16.6959 23.4918 21.4716 21.4347 25.7207 19.6075C27.8452 18.6939 29.8387 17.838 31.3418 17.1934C32.8218 16.5587 33.8501 16.1219 33.9668 16.0743Z" fill="#212121"/>
</svg>
