<svg width="50" height="50" viewBox="0 0 50 50" fill="none" xmlns="http://www.w3.org/2000/svg">
<rect x="0.5" y="0.5" width="49" height="49" rx="24.5" stroke="#09A494"/>
<g clip-path="url(#clip0_8_158)">
<path d="M24.4287 15.6616C22.876 15.6469 21.7041 15.7202 20.7227 16.2255C20.3198 16.4306 20.0342 16.6943 19.8144 17.0019C19.6973 17.1557 19.5874 17.2949 19.5361 17.6171C19.5068 17.771 19.4849 18.0273 19.646 18.3056C19.8071 18.5913 20.1514 18.7817 20.3857 18.8183C20.5615 18.8403 20.9351 18.9941 21.001 19.082C21.1548 19.3017 21.2134 19.4629 21.2353 19.5507C21.2573 19.6386 21.25 19.58 21.25 19.58V19.6679C21.25 19.6679 21.3086 20.5908 21.272 21.5429C21.25 22.0117 21.2061 22.5024 21.1328 22.832C21.0596 23.1616 20.8765 23.2421 21.1401 23.0883C20.957 23.1982 21.0229 23.2421 20.7959 23.125C20.5615 23.0151 19.9536 22.5024 19.1553 21.0669C18.3569 19.624 17.7783 18.8769 17.6465 18.7158C17.5952 18.5693 17.4707 18.269 17.0459 17.9394C16.4966 17.5146 15.9326 17.5073 15.9326 17.5073L15.8813 17.5H11.7871C11.7871 17.5 11.5527 17.5073 11.2817 17.5659C11.0107 17.6245 10.6226 17.6904 10.2563 18.1445H10.249C9.87548 18.6206 9.9414 19.0527 9.9707 19.3164C10.0073 19.5874 10.0879 19.7998 10.0879 19.7998L10.1025 19.8437L10.1245 19.8877C10.1245 19.8877 13.2519 26.56 16.9873 30.625C20.4956 34.4482 24.5605 34.375 24.5605 34.375H26.8677L26.9189 34.3676C26.9189 34.3676 27.6587 34.4043 28.2812 33.7085C28.5962 33.3496 28.6694 33.0127 28.7061 32.7636C28.75 32.5073 28.75 32.3022 28.75 32.3022V32.3608C28.75 32.3608 28.7793 31.8774 28.9111 31.372C28.977 31.123 29.0723 30.874 29.1602 30.7348C29.2041 30.6543 29.2041 30.6762 29.2187 30.6543C29.3799 30.7714 29.6436 31.0424 29.9219 31.3867C30.4932 32.0678 31.1377 33.0127 32.0386 33.6645C32.6904 34.1259 33.3057 34.331 33.7744 34.4043C34.0894 34.4555 34.3164 34.4482 34.4702 34.4336L37.6562 34.375H37.6855C37.6855 34.375 38.3447 34.3603 39.0039 33.9428C39.3262 33.7378 39.6997 33.3642 39.8242 32.8295C39.9561 32.2949 39.8096 31.7163 39.5019 31.1816C39.6045 31.3647 39.48 31.123 39.3848 30.9326C39.2895 30.7421 39.1431 30.4858 38.9233 30.1635C38.4985 29.5337 37.7954 28.6474 36.6309 27.5195C36.0815 26.9921 35.73 26.6992 35.5103 26.4941C35.5762 26.3989 35.5835 26.3916 35.8325 26.0986C36.228 25.6372 36.8066 24.956 37.5391 23.9379C38.418 22.7075 39.0552 21.7041 39.4653 20.8691C39.8755 20.0415 40.2051 19.353 39.8389 18.5034C39.6411 18.042 39.2895 17.8662 39.0332 17.7563C38.7695 17.6464 38.5352 17.6025 38.3154 17.5659C37.8833 17.5 37.5024 17.5 37.5024 17.5L33.7891 17.5293C33.6792 17.5073 33.2544 17.4267 32.7051 17.7783C32.1631 18.1152 32.0386 18.4741 32.0093 18.5839C31.9214 18.7085 31.3061 19.58 30.4492 21.1035C29.585 22.6416 28.999 23.059 28.9258 23.0957C28.9038 23.0737 28.9478 23.081 28.8452 23.0224C28.8013 22.9858 28.7573 22.9565 28.7207 22.561C28.6914 22.1655 28.728 21.5429 28.728 20.8105C28.728 19.2358 28.8672 18.4155 28.7866 17.6318C28.75 17.2363 28.5889 16.7529 28.2373 16.4306C27.8857 16.1157 27.5049 15.9985 27.1094 15.896C26.4868 15.7421 25.6445 15.6762 24.4287 15.6616ZM24.4141 17.5366C25.5493 17.5512 26.3477 17.6391 26.6406 17.7124C26.8896 17.7783 26.9263 17.8076 26.9189 17.7929C26.9189 17.8076 26.9189 17.8003 26.9189 17.8222C26.9482 18.1372 26.853 19.1479 26.853 20.8105C26.853 21.4624 26.8018 22.0922 26.853 22.7221C26.9043 23.352 27.1313 24.1211 27.7978 24.5752H27.8052C27.7246 24.5239 28.6475 25.2124 29.5264 24.8974C30.4053 24.5752 31.1011 23.7695 32.0898 22.019C32.9541 20.4663 33.5913 19.5947 33.5913 19.5947L33.6499 19.5068L33.6938 19.4189C33.6938 19.4189 33.6792 19.4116 33.6938 19.4043L37.5024 19.375C37.5024 19.375 37.7661 19.375 38.0225 19.4189C38.0298 19.4189 38.0371 19.4189 38.0444 19.4189C38.0078 19.4336 38.0371 19.5288 37.7808 20.0488C37.4512 20.7153 36.8579 21.6674 36.0156 22.8466C35.3198 23.8061 34.7998 24.4287 34.4116 24.8828C34.0234 25.3295 33.7305 25.542 33.54 26.1279C33.4448 26.4135 33.4668 26.8383 33.606 27.124C33.7378 27.4023 33.8989 27.5561 34.0601 27.7099C34.3823 28.0175 34.7632 28.3178 35.3198 28.8671C36.4111 29.9218 37.0264 30.6982 37.3706 31.2109C37.5464 31.4746 37.6489 31.6577 37.7148 31.7895C37.7808 31.9213 37.7368 31.8701 37.8833 32.1191C38.0078 32.3462 37.9858 32.3755 37.9858 32.3608C37.8613 32.434 37.5464 32.5 37.5391 32.5L34.353 32.5586L34.2651 32.5805C34.2651 32.5805 34.2725 32.5879 34.0747 32.5586C33.8696 32.5219 33.5474 32.434 33.1372 32.1411C32.6318 31.7822 31.9946 30.9472 31.3647 30.1855C31.0571 29.812 30.7422 29.4458 30.3467 29.1528C29.9512 28.8598 29.3286 28.5888 28.6914 28.8012C28.1421 28.977 27.7832 29.3798 27.5561 29.7534C27.3291 30.1342 27.1973 30.5297 27.0947 30.8886C26.9043 31.6137 26.875 32.2656 26.875 32.2656V32.3242C26.875 32.3242 26.875 32.3681 26.8603 32.434C26.8237 32.4487 26.7725 32.4853 26.7432 32.5H24.5019C24.5019 32.5 21.4038 32.6611 18.3643 29.3652C15.1123 25.8129 12.2192 19.873 11.9775 19.375H15.7495C15.7861 19.3896 15.918 19.4409 15.9033 19.4336C15.8154 19.3603 15.9473 19.5214 15.9473 19.5214L16.0059 19.6606L16.1084 19.7778C16.1084 19.7778 16.687 20.4809 17.5146 21.9751C18.4009 23.5791 19.1479 24.414 19.9829 24.8169C20.8179 25.2197 21.6968 24.934 22.0703 24.7216C22.7661 24.3188 22.8467 23.7548 22.9639 23.2348C23.0811 22.7148 23.1177 22.1582 23.1396 21.6162C23.1836 20.5761 23.125 19.6899 23.125 19.624C23.1177 19.602 23.1177 19.3457 23.0444 19.0673C22.9639 18.7817 22.8174 18.4082 22.5391 18.0127C22.4219 17.8515 22.312 17.9321 22.1875 17.8149C22.7075 17.6684 23.2642 17.5219 24.4141 17.5366Z" fill="#212121"/>
</g>
<defs>
<clipPath id="clip0_8_158">
<rect width="30" height="30" fill="white" transform="translate(10 10)"/>
</clipPath>
</defs>
</svg>
